@startuml Ghostapp Class Diagram Props
class "App.js" {
}
"App.js" --> "Auth.js"
"App.js" --> "Context_UserContext.js"
"App.js" --> "Home.js"
"App.js" --> "Profile.js"
class "Auth.js" {
    + path
}
"Auth.js" --> "AuthComponents_Login.js"
"Auth.js" --> "AuthComponents_Signup.js"
class "AuthComponents_Login.js" {
}
"AuthComponents_Login.js" --> "Context_UserContext.js"
class "Context_UserContext.js" {
    + children
}
"Context_UserContext.js" --> "Service_Backend.js"

class "Service_Backend.js" {

}
class "AuthComponents_Signup.js" {
}
"AuthComponents_Signup.js" --> "Context_UserContext.js"
class "Home.js" {
  
}
"Home.js" --> "HomeComponents_Footer.js"
"Home.js" --> "HomeComponents_LeftBar.js"
"Home.js" --> "HomeComponents_Post.js"
"Home.js" --> "HomeComponents_Posts_useUpload.js"
"Home.js" --> "HomeComponents_TopBar.js"
class "HomeComponents_Footer.js" {
    + toggleLeftBar
}
class "HomeComponents_LeftBar.js" {
}
"HomeComponents_LeftBar.js" --> "Context_UserContext.js"
class "HomeComponents_Post.js" {
   + uploadedImage
   + uploadedVideo
   + clearUploads
}
"HomeComponents_Post.js" --> "Context_UserContext.js"
"HomeComponents_Post.js" --> "Service_Backend.js"
"HomeComponents_Post.js" --> "Service_FetchData.js"
"HomeComponents_Post.js" --> "HomeComponents_PostSection.js"
class "Service_FetchData.js" {
}
class "HomeComponents_PostSection.js" {
    + postContent
    + setPostContent
    + sendPost
    + currentGroupPosts
    + showCommentSection
    + toggleCommentSection
    + handleDeletePost
    + addCommentOrReply
    + deleteCommentOrReply
    + commentsByPost
}
"HomeComponents_PostSection.js" --> "HomeComponents_Posts_CommentSection.js"
"HomeComponents_PostSection.js" --> "HomeComponents_Posts_Like.js"
class "HomeComponents_Posts_CommentSection.js" {
    + comments
    + onAddComment
    + onReplySubmit
    + onDelete
}
"HomeComponents_Posts_CommentSection.js" --> "HomeComponents_Posts_Comment.js"
class "HomeComponents_Posts_Comment.js" {
    + commentData
    + onReplySubmit
    + onDelete
}
"HomeComponents_Posts_Comment.js" --> "Context_UserContext.js"
class "HomeComponents_Posts_Like.js" {
    + objectId
}
"HomeComponents_Posts_Like.js" --> "Context_UserContext.js"
class "HomeComponents_Posts_useUpload.js" {
}
class "HomeComponents_TopBar.js" {
    + onPhotoUpload
    + onVideoUpload 
}
"HomeComponents_TopBar.js" --> "Context_UserContext.js"
class "Profile.js" {
}
"Profile.js" --> "ProfileComponents_Footer.js"
"Profile.js" --> "ProfileComponents_Header.js"
"Profile.js" --> "ProfileComponents_MainContent.js"
class "ProfileComponents_Footer.js" {
}
class "ProfileComponents_Header.js" {
}
"ProfileComponents_Header.js" --> "Context_UserContext.js"
class "ProfileComponents_MainContent.js" {
}
"ProfileComponents_MainContent.js" --> "Context_UserContext.js"
class "index.js" {
}
"index.js" --> "App.js"
@enduml